<svg width="228" height="26" viewBox="0 0 228 26" fill="none" xmlns="http://www.w3.org/2000/svg">
<path d="M5.06 17.458H10.81V21H1.38V4.9H5.06V17.458ZM20.5525 9.5H24.0025V21H20.5525V19.919C19.7398 20.8543 18.5975 21.322 17.1255 21.322C15.6075 21.322 14.3118 20.7393 13.2385 19.574C12.1651 18.3933 11.6285 16.952 11.6285 15.25C11.6285 13.548 12.1651 12.1143 13.2385 10.949C14.3118 9.76833 15.6075 9.178 17.1255 9.178C18.5975 9.178 19.7398 9.64567 20.5525 10.581V9.5ZM15.8375 17.297C16.3435 17.803 17.0028 18.056 17.8155 18.056C18.6281 18.056 19.2875 17.803 19.7935 17.297C20.2995 16.791 20.5525 16.1087 20.5525 15.25C20.5525 14.3913 20.2995 13.709 19.7935 13.203C19.2875 12.697 18.6281 12.444 17.8155 12.444C17.0028 12.444 16.3435 12.697 15.8375 13.203C15.3315 13.709 15.0785 14.3913 15.0785 15.25C15.0785 16.1087 15.3315 16.791 15.8375 17.297ZM33.2726 9.178C34.4992 9.178 35.5189 9.59967 36.3316 10.443C37.1596 11.2863 37.5736 12.4517 37.5736 13.939V21H34.1236V14.445C34.1236 13.7703 33.9319 13.2567 33.5486 12.904C33.1806 12.536 32.7052 12.352 32.1226 12.352C31.4632 12.352 30.9419 12.5513 30.5586 12.95C30.1752 13.3487 29.9836 13.939 29.9836 14.721V21H26.5336V9.5H29.9836V10.581C30.6736 9.64567 31.7699 9.178 33.2726 9.178ZM48.2917 4.9H51.7417V21H48.2917V19.919C47.4791 20.8543 46.3367 21.322 44.8647 21.322C43.3467 21.322 42.0511 20.7393 40.9777 19.574C39.9044 18.3933 39.3677 16.952 39.3677 15.25C39.3677 13.548 39.9044 12.1143 40.9777 10.949C42.0511 9.76833 43.3467 9.178 44.8647 9.178C46.3367 9.178 47.4791 9.64567 48.2917 10.581V4.9ZM43.5767 17.297C44.0827 17.803 44.7421 18.056 45.5547 18.056C46.3674 18.056 47.0267 17.803 47.5327 17.297C48.0387 16.791 48.2917 16.1087 48.2917 15.25C48.2917 14.3913 48.0387 13.709 47.5327 13.203C47.0267 12.697 46.3674 12.444 45.5547 12.444C44.7421 12.444 44.0827 12.697 43.5767 13.203C43.0707 13.709 42.8177 14.3913 42.8177 15.25C42.8177 16.1087 43.0707 16.791 43.5767 17.297ZM57.4468 7.89C57.0481 8.28867 56.5651 8.488 55.9978 8.488C55.4305 8.488 54.9398 8.28867 54.5258 7.89C54.1271 7.476 53.9278 6.98533 53.9278 6.418C53.9278 5.85067 54.1271 5.36767 54.5258 4.969C54.9398 4.555 55.4305 4.348 55.9978 4.348C56.5651 4.348 57.0481 4.555 57.4468 4.969C57.8608 5.36767 58.0678 5.85067 58.0678 6.418C58.0678 6.98533 57.8608 7.476 57.4468 7.89ZM54.2728 21V9.5H57.7228V21H54.2728ZM66.9864 9.178C68.2131 9.178 69.2328 9.59967 70.0454 10.443C70.8734 11.2863 71.2874 12.4517 71.2874 13.939V21H67.8374V14.445C67.8374 13.7703 67.6458 13.2567 67.2624 12.904C66.8944 12.536 66.4191 12.352 65.8364 12.352C65.1771 12.352 64.6558 12.5513 64.2724 12.95C63.8891 13.3487 63.6974 13.939 63.6974 14.721V21H60.2474V9.5H63.6974V10.581C64.3874 9.64567 65.4838 9.178 66.9864 9.178ZM82.0976 9.5H85.4556V20.425C85.4556 22.2343 84.8653 23.599 83.6846 24.519C82.5039 25.4543 81.0703 25.922 79.3836 25.922C76.7923 25.922 74.9753 24.9943 73.9326 23.139L76.8766 21.437C77.3979 22.403 78.2719 22.886 79.4986 22.886C80.3113 22.886 80.9476 22.6713 81.4076 22.242C81.8676 21.828 82.0976 21.2223 82.0976 20.425V19.367C81.3003 20.3637 80.1809 20.862 78.7396 20.862C77.1296 20.862 75.7803 20.2947 74.6916 19.16C73.6183 18.01 73.0816 16.63 73.0816 15.02C73.0816 13.41 73.6183 12.0377 74.6916 10.903C75.7803 9.753 77.1296 9.178 78.7396 9.178C80.1809 9.178 81.3003 9.67633 82.0976 10.673V9.5ZM77.3136 16.952C77.8349 17.4427 78.5019 17.688 79.3146 17.688C80.1273 17.688 80.7943 17.4427 81.3156 16.952C81.8369 16.4613 82.0976 15.8173 82.0976 15.02C82.0976 14.2227 81.8369 13.5787 81.3156 13.088C80.7943 12.5973 80.1273 12.352 79.3146 12.352C78.5019 12.352 77.8349 12.5973 77.3136 13.088C76.7923 13.5787 76.5316 14.2227 76.5316 15.02C76.5316 15.8173 76.7923 16.4613 77.3136 16.952ZM100.292 4.9C102.515 4.9 104.37 5.67433 105.858 7.223C107.36 8.75633 108.112 10.6653 108.112 12.95C108.112 15.2347 107.36 17.1513 105.858 18.7C104.37 20.2333 102.515 21 100.292 21H93.8517V4.9H100.292ZM100.292 17.458C101.564 17.458 102.592 17.0517 103.374 16.239C104.171 15.411 104.57 14.3147 104.57 12.95C104.57 11.5853 104.171 10.4967 103.374 9.684C102.592 8.856 101.564 8.442 100.292 8.442H97.5317V17.458H100.292ZM119.91 19.574C118.729 20.7393 117.288 21.322 115.586 21.322C113.884 21.322 112.442 20.7393 111.262 19.574C110.081 18.3933 109.491 16.952 109.491 15.25C109.491 13.548 110.081 12.1143 111.262 10.949C112.442 9.76833 113.884 9.178 115.586 9.178C117.288 9.178 118.729 9.76833 119.91 10.949C121.09 12.1143 121.681 13.548 121.681 15.25C121.681 16.952 121.09 18.3933 119.91 19.574ZM113.7 17.205C114.206 17.711 114.834 17.964 115.586 17.964C116.337 17.964 116.966 17.711 117.472 17.205C117.978 16.699 118.231 16.0473 118.231 15.25C118.231 14.4527 117.978 13.801 117.472 13.295C116.966 12.789 116.337 12.536 115.586 12.536C114.834 12.536 114.206 12.789 113.7 13.295C113.194 13.801 112.941 14.4527 112.941 15.25C112.941 16.0473 113.194 16.699 113.7 17.205ZM131.061 9.5H134.511V21H131.061V19.919C130.371 20.8543 129.275 21.322 127.772 21.322C126.546 21.322 125.518 20.9003 124.69 20.057C123.878 19.2137 123.471 18.0483 123.471 16.561V9.5H126.921V16.055C126.921 16.7297 127.105 17.251 127.473 17.619C127.857 17.9717 128.34 18.148 128.922 18.148C129.582 18.148 130.103 17.9487 130.486 17.55C130.87 17.1513 131.061 16.561 131.061 15.779V9.5ZM145.482 9.5H148.84V20.425C148.84 22.2343 148.25 23.599 147.069 24.519C145.889 25.4543 144.455 25.922 142.768 25.922C140.177 25.922 138.36 24.9943 137.317 23.139L140.261 21.437C140.783 22.403 141.657 22.886 142.883 22.886C143.696 22.886 144.332 22.6713 144.792 22.242C145.252 21.828 145.482 21.2223 145.482 20.425V19.367C144.685 20.3637 143.566 20.862 142.124 20.862C140.514 20.862 139.165 20.2947 138.076 19.16C137.003 18.01 136.466 16.63 136.466 15.02C136.466 13.41 137.003 12.0377 138.076 10.903C139.165 9.753 140.514 9.178 142.124 9.178C143.566 9.178 144.685 9.67633 145.482 10.673V9.5ZM140.698 16.952C141.22 17.4427 141.887 17.688 142.699 17.688C143.512 17.688 144.179 17.4427 144.7 16.952C145.222 16.4613 145.482 15.8173 145.482 15.02C145.482 14.2227 145.222 13.5787 144.7 13.088C144.179 12.5973 143.512 12.352 142.699 12.352C141.887 12.352 141.22 12.5973 140.698 13.088C140.177 13.5787 139.916 14.2227 139.916 15.02C139.916 15.8173 140.177 16.4613 140.698 16.952ZM158.11 9.178C159.337 9.178 160.357 9.59967 161.169 10.443C161.997 11.2863 162.411 12.4517 162.411 13.939V21H158.961V14.445C158.961 13.7703 158.77 13.2567 158.386 12.904C158.018 12.536 157.543 12.352 156.96 12.352C156.301 12.352 155.78 12.5513 155.396 12.95C155.013 13.3487 154.821 13.939 154.821 14.721V21H151.371V4.9H154.821V10.581C155.511 9.64567 156.608 9.178 158.11 9.178ZM171.52 9.178C172.746 9.178 173.766 9.59967 174.579 10.443C175.407 11.2863 175.821 12.4517 175.821 13.939V21H172.371V14.445C172.371 13.7703 172.179 13.2567 171.796 12.904C171.428 12.536 170.952 12.352 170.37 12.352C169.71 12.352 169.189 12.5513 168.806 12.95C168.422 13.3487 168.231 13.939 168.231 14.721V21H164.781V9.5H168.231V10.581C168.921 9.64567 170.017 9.178 171.52 9.178ZM185.619 9.5H189.069V21H185.619V19.919C184.929 20.8543 183.832 21.322 182.33 21.322C181.103 21.322 180.076 20.9003 179.248 20.057C178.435 19.2137 178.029 18.0483 178.029 16.561V9.5H181.479V16.055C181.479 16.7297 181.663 17.251 182.031 17.619C182.414 17.9717 182.897 18.148 183.48 18.148C184.139 18.148 184.66 17.9487 185.044 17.55C185.427 17.1513 185.619 16.561 185.619 15.779V9.5ZM198.338 12.812H195.969V16.883C195.969 17.343 196.153 17.6343 196.521 17.757C196.889 17.8797 197.495 17.918 198.338 17.872V21C196.145 21.23 194.627 21.023 193.784 20.379C192.941 19.7197 192.519 18.5543 192.519 16.883V12.812H190.679V9.5H192.519V7.315L195.969 6.28V9.5H198.338V12.812Z" fill="black"/>
<path fill-rule="evenodd" clip-rule="evenodd" d="M217 24C223.075 24 228 19.0751 228 13C228 6.92487 223.075 2 217 2C210.925 2 206 6.92487 206 13C206 19.0751 210.925 24 217 24ZM217 16C218.657 16 220 14.6569 220 13C220 11.3431 218.657 10 217 10C215.343 10 214 11.3431 214 13C214 14.6569 215.343 16 217 16Z" fill="#ED7067"/>
</svg>
