<svg width="112" height="52" viewBox="0 0 112 52" fill="none" xmlns="http://www.w3.org/2000/svg">
<path d="M5.06 17.458H10.81V21H1.38V4.9H5.06V17.458ZM20.5525 9.5H24.0025V21H20.5525V19.919C19.7398 20.8543 18.5975 21.322 17.1255 21.322C15.6075 21.322 14.3118 20.7393 13.2385 19.574C12.1651 18.3933 11.6285 16.952 11.6285 15.25C11.6285 13.548 12.1651 12.1143 13.2385 10.949C14.3118 9.76833 15.6075 9.178 17.1255 9.178C18.5975 9.178 19.7398 9.64567 20.5525 10.581V9.5ZM15.8375 17.297C16.3435 17.803 17.0028 18.056 17.8155 18.056C18.6281 18.056 19.2875 17.803 19.7935 17.297C20.2995 16.791 20.5525 16.1087 20.5525 15.25C20.5525 14.3913 20.2995 13.709 19.7935 13.203C19.2875 12.697 18.6281 12.444 17.8155 12.444C17.0028 12.444 16.3435 12.697 15.8375 13.203C15.3315 13.709 15.0785 14.3913 15.0785 15.25C15.0785 16.1087 15.3315 16.791 15.8375 17.297ZM33.2726 9.178C34.4992 9.178 35.5189 9.59967 36.3316 10.443C37.1596 11.2863 37.5736 12.4517 37.5736 13.939V21H34.1236V14.445C34.1236 13.7703 33.9319 13.2567 33.5486 12.904C33.1806 12.536 32.7052 12.352 32.1226 12.352C31.4632 12.352 30.9419 12.5513 30.5586 12.95C30.1752 13.3487 29.9836 13.939 29.9836 14.721V21H26.5336V9.5H29.9836V10.581C30.6736 9.64567 31.7699 9.178 33.2726 9.178ZM48.2917 4.9H51.7417V21H48.2917V19.919C47.4791 20.8543 46.3367 21.322 44.8647 21.322C43.3467 21.322 42.0511 20.7393 40.9777 19.574C39.9044 18.3933 39.3677 16.952 39.3677 15.25C39.3677 13.548 39.9044 12.1143 40.9777 10.949C42.0511 9.76833 43.3467 9.178 44.8647 9.178C46.3367 9.178 47.4791 9.64567 48.2917 10.581V4.9ZM43.5767 17.297C44.0827 17.803 44.7421 18.056 45.5547 18.056C46.3674 18.056 47.0267 17.803 47.5327 17.297C48.0387 16.791 48.2917 16.1087 48.2917 15.25C48.2917 14.3913 48.0387 13.709 47.5327 13.203C47.0267 12.697 46.3674 12.444 45.5547 12.444C44.7421 12.444 44.0827 12.697 43.5767 13.203C43.0707 13.709 42.8177 14.3913 42.8177 15.25C42.8177 16.1087 43.0707 16.791 43.5767 17.297ZM57.4468 7.89C57.0481 8.28867 56.5651 8.488 55.9978 8.488C55.4305 8.488 54.9398 8.28867 54.5258 7.89C54.1271 7.476 53.9278 6.98533 53.9278 6.418C53.9278 5.85067 54.1271 5.36767 54.5258 4.969C54.9398 4.555 55.4305 4.348 55.9978 4.348C56.5651 4.348 57.0481 4.555 57.4468 4.969C57.8608 5.36767 58.0678 5.85067 58.0678 6.418C58.0678 6.98533 57.8608 7.476 57.4468 7.89ZM54.2728 21V9.5H57.7228V21H54.2728ZM66.9864 9.178C68.2131 9.178 69.2328 9.59967 70.0454 10.443C70.8734 11.2863 71.2874 12.4517 71.2874 13.939V21H67.8374V14.445C67.8374 13.7703 67.6458 13.2567 67.2624 12.904C66.8944 12.536 66.4191 12.352 65.8364 12.352C65.1771 12.352 64.6558 12.5513 64.2724 12.95C63.8891 13.3487 63.6974 13.939 63.6974 14.721V21H60.2474V9.5H63.6974V10.581C64.3874 9.64567 65.4838 9.178 66.9864 9.178ZM82.0976 9.5H85.4556V20.425C85.4556 22.2343 84.8653 23.599 83.6846 24.519C82.5039 25.4543 81.0703 25.922 79.3836 25.922C76.7923 25.922 74.9753 24.9943 73.9326 23.139L76.8766 21.437C77.3979 22.403 78.2719 22.886 79.4986 22.886C80.3113 22.886 80.9476 22.6713 81.4076 22.242C81.8676 21.828 82.0976 21.2223 82.0976 20.425V19.367C81.3003 20.3637 80.1809 20.862 78.7396 20.862C77.1296 20.862 75.7803 20.2947 74.6916 19.16C73.6183 18.01 73.0816 16.63 73.0816 15.02C73.0816 13.41 73.6183 12.0377 74.6916 10.903C75.7803 9.753 77.1296 9.178 78.7396 9.178C80.1809 9.178 81.3003 9.67633 82.0976 10.673V9.5ZM77.3136 16.952C77.8349 17.4427 78.5019 17.688 79.3146 17.688C80.1273 17.688 80.7943 17.4427 81.3156 16.952C81.8369 16.4613 82.0976 15.8173 82.0976 15.02C82.0976 14.2227 81.8369 13.5787 81.3156 13.088C80.7943 12.5973 80.1273 12.352 79.3146 12.352C78.5019 12.352 77.8349 12.5973 77.3136 13.088C76.7923 13.5787 76.5316 14.2227 76.5316 15.02C76.5316 15.8173 76.7923 16.4613 77.3136 16.952ZM7.82 30.9C10.0433 30.9 11.8987 31.6743 13.386 33.223C14.8887 34.7563 15.64 36.6653 15.64 38.95C15.64 41.2347 14.8887 43.1513 13.386 44.7C11.8987 46.2333 10.0433 47 7.82 47H1.38V30.9H7.82ZM7.82 43.458C9.09267 43.458 10.12 43.0517 10.902 42.239C11.6993 41.411 12.098 40.3147 12.098 38.95C12.098 37.5853 11.6993 36.4967 10.902 35.684C10.12 34.856 9.09267 34.442 7.82 34.442H5.06V43.458H7.82ZM27.4381 45.574C26.2574 46.7393 24.8161 47.322 23.1141 47.322C21.4121 47.322 19.9708 46.7393 18.7901 45.574C17.6094 44.3933 17.0191 42.952 17.0191 41.25C17.0191 39.548 17.6094 38.1143 18.7901 36.949C19.9708 35.7683 21.4121 35.178 23.1141 35.178C24.8161 35.178 26.2574 35.7683 27.4381 36.949C28.6188 38.1143 29.2091 39.548 29.2091 41.25C29.2091 42.952 28.6188 44.3933 27.4381 45.574ZM21.2281 43.205C21.7341 43.711 22.3628 43.964 23.1141 43.964C23.8654 43.964 24.4941 43.711 25.0001 43.205C25.5061 42.699 25.7591 42.0473 25.7591 41.25C25.7591 40.4527 25.5061 39.801 25.0001 39.295C24.4941 38.789 23.8654 38.536 23.1141 38.536C22.3628 38.536 21.7341 38.789 21.2281 39.295C20.7221 39.801 20.4691 40.4527 20.4691 41.25C20.4691 42.0473 20.7221 42.699 21.2281 43.205ZM38.5895 35.5H42.0395V47H38.5895V45.919C37.8995 46.8543 36.8032 47.322 35.3005 47.322C34.0738 47.322 33.0465 46.9003 32.2185 46.057C31.4058 45.2137 30.9995 44.0483 30.9995 42.561V35.5H34.4495V42.055C34.4495 42.7297 34.6335 43.251 35.0015 43.619C35.3848 43.9717 35.8678 44.148 36.4505 44.148C37.1098 44.148 37.6312 43.9487 38.0145 43.55C38.3978 43.1513 38.5895 42.561 38.5895 41.779V35.5ZM53.0107 35.5H56.3687V46.425C56.3687 48.2343 55.7784 49.599 54.5977 50.519C53.417 51.4543 51.9834 51.922 50.2967 51.922C47.7054 51.922 45.8884 50.9943 44.8457 49.139L47.7897 47.437C48.311 48.403 49.185 48.886 50.4117 48.886C51.2244 48.886 51.8607 48.6713 52.3207 48.242C52.7807 47.828 53.0107 47.2223 53.0107 46.425V45.367C52.2134 46.3637 51.094 46.862 49.6527 46.862C48.0427 46.862 46.6934 46.2947 45.6047 45.16C44.5314 44.01 43.9947 42.63 43.9947 41.02C43.9947 39.41 44.5314 38.0377 45.6047 36.903C46.6934 35.753 48.0427 35.178 49.6527 35.178C51.094 35.178 52.2134 35.6763 53.0107 36.673V35.5ZM48.2267 42.952C48.748 43.4427 49.415 43.688 50.2277 43.688C51.0404 43.688 51.7074 43.4427 52.2287 42.952C52.75 42.4613 53.0107 41.8173 53.0107 41.02C53.0107 40.2227 52.75 39.5787 52.2287 39.088C51.7074 38.5973 51.0404 38.352 50.2277 38.352C49.415 38.352 48.748 38.5973 48.2267 39.088C47.7054 39.5787 47.4447 40.2227 47.4447 41.02C47.4447 41.8173 47.7054 42.4613 48.2267 42.952ZM65.6388 35.178C66.8654 35.178 67.8851 35.5997 68.6978 36.443C69.5258 37.2863 69.9398 38.4517 69.9398 39.939V47H66.4898V40.445C66.4898 39.7703 66.2981 39.2567 65.9148 38.904C65.5468 38.536 65.0714 38.352 64.4888 38.352C63.8294 38.352 63.3081 38.5513 62.9248 38.95C62.5414 39.3487 62.3498 39.939 62.3498 40.721V47H58.8998V30.9H62.3498V36.581C63.0398 35.6457 64.1361 35.178 65.6388 35.178ZM79.0479 35.178C80.2746 35.178 81.2943 35.5997 82.1069 36.443C82.9349 37.2863 83.3489 38.4517 83.3489 39.939V47H79.8989V40.445C79.8989 39.7703 79.7073 39.2567 79.3239 38.904C78.9559 38.536 78.4806 38.352 77.8979 38.352C77.2386 38.352 76.7173 38.5513 76.3339 38.95C75.9506 39.3487 75.7589 39.939 75.7589 40.721V47H72.3089V35.5H75.7589V36.581C76.4489 35.6457 77.5453 35.178 79.0479 35.178ZM93.1471 35.5H96.5971V47H93.1471V45.919C92.4571 46.8543 91.3608 47.322 89.8581 47.322C88.6315 47.322 87.6041 46.9003 86.7761 46.057C85.9635 45.2137 85.5571 44.0483 85.5571 42.561V35.5H89.0071V42.055C89.0071 42.7297 89.1911 43.251 89.5591 43.619C89.9425 43.9717 90.4255 44.148 91.0081 44.148C91.6675 44.148 92.1888 43.9487 92.5721 43.55C92.9555 43.1513 93.1471 42.561 93.1471 41.779V35.5ZM105.866 38.812H103.497V42.883C103.497 43.343 103.681 43.6343 104.049 43.757C104.417 43.8797 105.023 43.918 105.866 43.872V47C103.674 47.23 102.156 47.023 101.312 46.379C100.469 45.7197 100.047 44.5543 100.047 42.883V38.812H98.2073V35.5H100.047V33.315L103.497 32.28V35.5H105.866V38.812Z" fill="black"/>
<path fill-rule="evenodd" clip-rule="evenodd" d="M101 27C107.075 27 112 22.0751 112 16C112 9.92487 107.075 5 101 5C94.9249 5 90 9.92487 90 16C90 22.0751 94.9249 27 101 27ZM101 19C102.657 19 104 17.6569 104 16C104 14.3431 102.657 13 101 13C99.3431 13 98 14.3431 98 16C98 17.6569 99.3431 19 101 19Z" fill="#ED7067"/>
</svg>
